<svg width="620" height="320" viewBox="0 0 620 320" fill="none" xmlns="http://www.w3.org/2000/svg">
<rect width="620" height="320" fill="#4094EF" fill-opacity="0.24"/>
<path d="M65.0658 187H47.1458L47.4958 184.97C49.5492 184.13 51.5558 183.57 53.5158 183.29L62.2658 141.78C61.3325 141.593 60.4458 141.36 59.6058 141.08C58.7658 140.753 57.9025 140.403 57.0158 140.03L57.5058 138H75.4258L75.0058 140.03C74.0725 140.403 73.0692 140.753 71.9958 141.08C70.9225 141.36 69.9192 141.593 68.9858 141.78L60.2358 183.29C61.1692 183.477 62.0792 183.71 62.9658 183.99C63.8992 184.27 64.7158 184.597 65.4158 184.97L65.0658 187ZM98.23 167.05C98.5566 165.603 98.8366 164.273 99.07 163.06C99.35 161.8 99.49 160.563 99.49 159.35C99.49 158.277 99.2333 157.367 98.72 156.62C98.2533 155.873 97.4833 155.5 96.41 155.5C95.15 155.5 93.8666 156.013 92.56 157.04C91.2533 158.067 90.04 159.303 88.92 160.75C87.8 162.197 86.7733 163.713 85.84 165.3C84.9533 166.84 84.2766 168.123 83.81 169.15L80.1 187H74.22L80.38 156.06L76.11 155.43L76.25 153.68C76.9033 153.353 77.6266 153.05 78.42 152.77C79.26 152.443 80.1 152.163 80.94 151.93C81.8266 151.697 82.6666 151.51 83.46 151.37C84.3 151.23 85.07 151.16 85.77 151.16L87.17 152L84.51 164.39H84.86C85.7466 162.523 86.75 160.797 87.87 159.21C89.0366 157.577 90.25 156.177 91.51 155.01C92.8166 153.797 94.17 152.863 95.57 152.21C96.97 151.51 98.3933 151.16 99.84 151.16C101.8 151.16 103.223 151.79 104.11 153.05C105.043 154.263 105.51 155.803 105.51 157.67C105.51 158.697 105.393 159.98 105.16 161.52C104.927 163.06 104.647 164.507 104.32 165.86L100.33 183.08H105.51V184.9C104.577 185.647 103.433 186.253 102.08 186.72C100.773 187.187 99.49 187.42 98.23 187.42C96.8766 187.42 95.9433 187.14 95.43 186.58C94.9166 186.02 94.66 185.413 94.66 184.76C94.66 183.873 94.7766 182.917 95.01 181.89C95.2433 180.817 95.4766 179.743 95.71 178.67L98.23 167.05ZM127.683 178.74C127.636 177.62 127.31 176.663 126.703 175.87C126.143 175.03 125.396 174.237 124.463 173.49C123.576 172.743 122.62 171.997 121.593 171.25C120.566 170.503 119.586 169.687 118.653 168.8C117.766 167.867 117.02 166.817 116.413 165.65C115.853 164.437 115.573 162.99 115.573 161.31C115.573 159.63 115.9 158.16 116.553 156.9C117.206 155.64 118.093 154.59 119.213 153.75C120.38 152.91 121.756 152.28 123.343 151.86C124.976 151.393 126.75 151.16 128.663 151.16C129.876 151.16 131.23 151.277 132.723 151.51C134.263 151.697 135.71 152.187 137.063 152.98C137.063 153.493 136.97 154.1 136.783 154.8C136.596 155.453 136.34 156.107 136.013 156.76C135.733 157.367 135.406 157.95 135.033 158.51C134.66 159.023 134.263 159.373 133.843 159.56L128.663 154.17C127.683 154.217 126.773 154.333 125.933 154.52C125.093 154.707 124.346 155.01 123.693 155.43C123.086 155.85 122.596 156.41 122.223 157.11C121.896 157.763 121.733 158.603 121.733 159.63C121.733 160.843 122.036 161.893 122.643 162.78C123.25 163.62 123.996 164.437 124.883 165.23C125.816 165.977 126.796 166.723 127.823 167.47C128.896 168.17 129.876 168.987 130.763 169.92C131.696 170.807 132.466 171.857 133.073 173.07C133.68 174.237 133.983 175.637 133.983 177.27C133.983 178.95 133.586 180.443 132.793 181.75C132.046 183.057 130.996 184.177 129.643 185.11C128.336 185.997 126.796 186.673 125.023 187.14C123.296 187.607 121.453 187.84 119.493 187.84C117.533 187.84 115.736 187.63 114.103 187.21C112.516 186.837 111.256 186.347 110.323 185.74C110.556 184.527 110.836 183.36 111.163 182.24C111.49 181.073 112.166 180 113.193 179.02L119.493 184.83C120.473 184.83 121.43 184.713 122.363 184.48C123.343 184.247 124.206 183.873 124.953 183.36C125.746 182.847 126.376 182.217 126.843 181.47C127.356 180.723 127.636 179.813 127.683 178.74ZM142.871 153.68C143.804 153.167 144.784 152.7 145.811 152.28C146.884 151.86 147.934 151.533 148.961 151.3L150.081 145.98C150.734 145.467 151.481 145.023 152.321 144.65C153.207 144.23 154.117 143.833 155.051 143.46L156.521 144.3L154.841 152H163.521C163.614 152.56 163.614 153.143 163.521 153.75C163.427 154.357 163.194 154.94 162.821 155.5H154.141L149.731 175.8C149.544 176.687 149.404 177.48 149.311 178.18C149.217 178.833 149.171 179.44 149.171 180C149.171 181.213 149.521 182.1 150.221 182.66C150.921 183.22 151.691 183.5 152.531 183.5C153.697 183.5 154.934 183.29 156.241 182.87C157.594 182.403 158.831 181.89 159.951 181.33L160.721 182.59C160.301 183.197 159.671 183.803 158.831 184.41C157.991 185.017 157.034 185.577 155.961 186.09C154.934 186.603 153.837 187.023 152.671 187.35C151.551 187.677 150.477 187.84 149.451 187.84C147.397 187.84 145.787 187.373 144.621 186.44C143.454 185.507 142.871 184.06 142.871 182.1C142.871 181.447 142.917 180.723 143.011 179.93C143.151 179.137 143.314 178.32 143.501 177.48L148.121 155.5H142.801L142.871 153.68ZM175.905 183.5C177.165 183.5 178.425 182.917 179.685 181.75C180.945 180.537 182.135 179.09 183.255 177.41C184.375 175.73 185.378 173.98 186.265 172.16C187.151 170.34 187.851 168.823 188.365 167.61L190.605 155.64C189.951 155.173 189.321 154.847 188.715 154.66C188.108 154.473 187.268 154.38 186.195 154.38C184.048 154.38 182.088 155.057 180.315 156.41C178.588 157.717 177.095 159.42 175.835 161.52C174.621 163.62 173.665 165.953 172.965 168.52C172.311 171.087 171.985 173.607 171.985 176.08C171.985 178.46 172.265 180.303 172.825 181.61C173.431 182.87 174.458 183.5 175.905 183.5ZM186.965 173.28C186.358 174.96 185.588 176.663 184.655 178.39C183.768 180.117 182.718 181.68 181.505 183.08C180.338 184.48 179.031 185.623 177.585 186.51C176.138 187.397 174.598 187.84 172.965 187.84C168.111 187.84 165.685 184.317 165.685 177.27C165.685 174.003 166.151 170.83 167.085 167.75C168.018 164.623 169.371 161.847 171.145 159.42C172.918 156.993 175.065 155.057 177.585 153.61C180.151 152.117 183.045 151.37 186.265 151.37C187.431 151.37 188.365 151.487 189.065 151.72C189.765 151.907 190.605 152.21 191.585 152.63C193.451 151.65 195.411 151.16 197.465 151.16L191.165 183.15H196.275V184.9C195.341 185.647 194.221 186.253 192.915 186.72C191.608 187.187 190.325 187.42 189.065 187.42C187.711 187.42 186.731 187.14 186.125 186.58C185.565 185.973 185.285 185.343 185.285 184.69C185.285 183.85 185.448 182.473 185.775 180.56C186.101 178.647 186.591 176.22 187.245 173.28H186.965ZM209.096 138H228.276L227.786 140.03C226.619 140.45 225.429 140.823 224.216 141.15C223.049 141.43 221.882 141.64 220.716 141.78L211.966 183.36H227.996L234.506 172.09H236.326C236.232 173.07 236.116 174.213 235.976 175.52C235.836 176.78 235.649 178.11 235.416 179.51C235.229 180.863 234.996 182.193 234.716 183.5C234.482 184.807 234.226 185.973 233.946 187H198.736L199.086 184.97C200.346 184.457 201.466 184.083 202.446 183.85C203.426 183.617 204.359 183.43 205.246 183.29L213.996 141.78C211.802 141.36 210.006 140.777 208.606 140.03L209.096 138ZM242.772 155.43V153.68C243.472 153.4 244.265 153.12 245.152 152.84C246.038 152.513 246.948 152.233 247.882 152C248.815 151.767 249.702 151.58 250.542 151.44C251.382 151.253 252.128 151.16 252.782 151.16L254.042 152L247.462 183.08H252.642V184.9C251.662 185.647 250.518 186.253 249.212 186.72C247.905 187.187 246.622 187.42 245.362 187.42C244.008 187.42 243.028 187.117 242.422 186.51C241.862 185.903 241.582 185.203 241.582 184.41C241.582 183.477 241.652 182.567 241.792 181.68C241.932 180.793 242.118 179.813 242.352 178.74L247.252 156.13L242.772 155.43ZM248.372 139.89C248.372 138.677 248.745 137.72 249.492 137.02C250.238 136.32 251.218 135.97 252.432 135.97C253.738 135.97 254.765 136.32 255.512 137.02C256.258 137.72 256.632 138.677 256.632 139.89C256.632 141.057 256.258 141.967 255.512 142.62C254.765 143.273 253.738 143.6 252.432 143.6C251.218 143.6 250.238 143.273 249.492 142.62C248.745 141.967 248.372 141.057 248.372 139.89ZM266.246 155.5H261.136V153.68C262.069 153.167 263.049 152.723 264.076 152.35C265.149 151.93 266.152 151.603 267.086 151.37L267.576 148.92C268.182 146.027 268.999 143.647 270.026 141.78C271.099 139.867 272.336 138.373 273.736 137.3C275.136 136.18 276.676 135.41 278.356 134.99C280.036 134.57 281.832 134.36 283.746 134.36C284.539 134.36 285.472 134.453 286.546 134.64C287.666 134.827 288.599 135.107 289.346 135.48C289.252 136.507 288.996 137.58 288.576 138.7C288.202 139.773 287.549 140.707 286.616 141.5L281.296 137.16C280.456 137.393 279.686 137.65 278.986 137.93C278.286 138.21 277.609 138.747 276.956 139.54C276.349 140.287 275.766 141.36 275.206 142.76C274.646 144.16 274.109 146.073 273.596 148.5L272.896 152H280.666C280.899 153.167 280.666 154.333 279.966 155.5H272.196L267.716 183.99C267.202 187.303 266.339 190.057 265.126 192.25C263.912 194.443 262.606 196.217 261.206 197.57C259.852 198.923 258.522 199.927 257.216 200.58C255.909 201.233 254.906 201.653 254.206 201.84L253.576 200.3C254.136 200.02 254.812 199.507 255.606 198.76C256.399 198.06 257.169 197.103 257.916 195.89C258.709 194.677 259.432 193.183 260.086 191.41C260.786 189.683 261.322 187.653 261.696 185.32L266.246 155.5ZM305.437 180.77C305.017 181.657 304.41 182.52 303.617 183.36C302.824 184.2 301.89 184.97 300.817 185.67C299.744 186.323 298.53 186.837 297.177 187.21C295.824 187.63 294.377 187.84 292.837 187.84C288.964 187.84 285.977 186.743 283.877 184.55C281.824 182.31 280.797 179.23 280.797 175.31C280.797 171.997 281.264 168.87 282.197 165.93C283.13 162.99 284.437 160.423 286.117 158.23C287.797 156.037 289.827 154.31 292.207 153.05C294.634 151.79 297.317 151.16 300.257 151.16C302.497 151.16 304.41 151.743 305.997 152.91C307.63 154.03 308.447 155.71 308.447 157.95C308.447 161.263 306.79 163.877 303.477 165.79C300.21 167.703 294.914 168.94 287.587 169.5C287.4 170.293 287.26 171.063 287.167 171.81C287.12 172.557 287.097 173.28 287.097 173.98C287.097 176.78 287.797 179.067 289.197 180.84C290.644 182.613 292.744 183.5 295.497 183.5C296.384 183.5 297.247 183.36 298.087 183.08C298.974 182.8 299.79 182.45 300.537 182.03C301.33 181.61 302.03 181.167 302.637 180.7C303.29 180.233 303.85 179.813 304.317 179.44L305.437 180.77ZM298.087 154.17C296.08 154.217 294.214 155.173 292.487 157.04C290.76 158.86 289.29 162.01 288.077 166.49C292.604 166.35 296.127 165.58 298.647 164.18C301.167 162.733 302.427 160.75 302.427 158.23C302.427 157.25 302.124 156.34 301.517 155.5C300.957 154.66 299.814 154.217 298.087 154.17Z" fill="black"/>
<path d="M58.9854 244.639C57.6182 244.639 56.3975 244.873 55.3232 245.342C54.249 245.801 53.3408 246.455 52.5986 247.305C51.8564 248.154 51.29 249.17 50.8994 250.352C50.5088 251.523 50.3135 252.817 50.3135 254.233C50.3135 256.187 50.6211 257.896 51.2363 259.36C51.8516 260.815 52.7744 261.943 54.0049 262.744C55.2451 263.545 56.7881 263.945 58.6338 263.945C59.708 263.945 60.6846 263.867 61.5635 263.711C62.4424 263.545 63.2578 263.335 64.0098 263.081V264.399C63.2969 264.663 62.4912 264.878 61.5928 265.044C60.7041 265.21 59.6689 265.293 58.4873 265.293C56.3486 265.293 54.5518 264.834 53.0967 263.916C51.6514 262.998 50.5625 261.709 49.8301 260.049C49.0977 258.389 48.7314 256.45 48.7314 254.233C48.7314 252.642 48.9609 251.182 49.4199 249.854C49.8789 248.516 50.5479 247.358 51.4268 246.382C52.3154 245.396 53.3945 244.634 54.6641 244.097C55.9336 243.55 57.3789 243.276 59 243.276C60.0254 243.276 61.002 243.379 61.9297 243.584C62.8672 243.779 63.7461 244.067 64.5664 244.448L63.9805 245.767C63.1895 245.376 62.3789 245.093 61.5488 244.917C60.7188 244.731 59.8643 244.639 58.9854 244.639ZM74.1758 248.77C75.5332 248.77 76.6611 249.087 77.5596 249.722C78.4678 250.356 79.1416 251.226 79.5811 252.329C80.0303 253.433 80.2549 254.697 80.2549 256.123V257.192H68.7559C68.7559 259.38 69.2588 261.06 70.2646 262.231C71.2803 263.403 72.7305 263.989 74.6152 263.989C75.6016 263.989 76.4561 263.911 77.1787 263.755C77.9111 263.589 78.7217 263.311 79.6104 262.92V264.282C78.8291 264.634 78.0479 264.888 77.2666 265.044C76.4854 265.21 75.5869 265.293 74.5713 265.293C72.96 265.293 71.6074 264.961 70.5137 264.297C69.4297 263.623 68.6094 262.676 68.0527 261.455C67.5059 260.234 67.2324 258.809 67.2324 257.178C67.2324 255.586 67.4961 254.155 68.0234 252.886C68.5605 251.616 69.3418 250.615 70.3672 249.883C71.4023 249.141 72.6719 248.77 74.1758 248.77ZM74.1611 250.044C72.6377 250.044 71.4023 250.552 70.4551 251.567C69.5176 252.573 68.9658 254.028 68.7998 255.933H78.7168C78.7168 254.771 78.5508 253.745 78.2188 252.856C77.8867 251.968 77.3838 251.279 76.71 250.791C76.0459 250.293 75.1963 250.044 74.1611 250.044ZM91.6953 248.77C93.7461 248.77 95.333 249.458 96.4561 250.835C97.5889 252.212 98.1553 254.243 98.1553 256.929C98.1553 258.726 97.8867 260.249 97.3496 261.499C96.8125 262.739 96.0459 263.682 95.0498 264.326C94.0635 264.971 92.877 265.293 91.4902 265.293C90.5332 265.293 89.6982 265.151 88.9854 264.868C88.2822 264.575 87.6963 264.185 87.2275 263.696C86.7588 263.198 86.3975 262.651 86.1436 262.056H86.041C86.0703 262.612 86.0947 263.193 86.1143 263.799C86.1338 264.404 86.1436 264.976 86.1436 265.513V272.046H84.6494V249.077H85.8799L86.0557 252.256H86.1436C86.4072 251.65 86.7783 251.079 87.2568 250.542C87.7354 250.005 88.3408 249.575 89.0732 249.253C89.8057 248.931 90.6797 248.77 91.6953 248.77ZM91.5049 250.073C90.3037 250.073 89.3027 250.337 88.502 250.864C87.7109 251.382 87.1201 252.144 86.7295 253.149C86.3486 254.146 86.1533 255.366 86.1436 256.812V257.061C86.1436 258.613 86.334 259.907 86.7148 260.942C87.1055 261.968 87.6865 262.734 88.458 263.242C89.2393 263.75 90.2061 264.004 91.3584 264.004C92.4912 264.004 93.4482 263.726 94.2295 263.169C95.0107 262.612 95.6064 261.807 96.0166 260.752C96.4268 259.697 96.6318 258.418 96.6318 256.914C96.6318 254.678 96.2021 252.979 95.3428 251.816C94.4932 250.654 93.2139 250.073 91.5049 250.073ZM114.444 252.959C114.444 253.965 114.181 254.756 113.653 255.332C113.136 255.908 112.447 256.299 111.588 256.504V256.592C112.633 256.748 113.473 257.144 114.107 257.778C114.752 258.403 115.074 259.302 115.074 260.474C115.074 261.401 114.869 262.202 114.459 262.876C114.049 263.55 113.419 264.072 112.569 264.443C111.729 264.814 110.65 265 109.332 265H102.521V249.077H109.156C110.328 249.077 111.305 249.229 112.086 249.531C112.867 249.824 113.453 250.259 113.844 250.835C114.244 251.401 114.444 252.109 114.444 252.959ZM113.536 260.474C113.536 259.331 113.15 258.511 112.379 258.013C111.607 257.515 110.475 257.266 108.98 257.266H104.015V263.74H109.068C110.562 263.74 111.681 263.477 112.423 262.949C113.165 262.412 113.536 261.587 113.536 260.474ZM112.936 253.076C112.936 252.236 112.638 251.577 112.042 251.099C111.446 250.61 110.436 250.366 109.01 250.366H104.015V255.962H108.863C110.27 255.962 111.3 255.723 111.954 255.244C112.608 254.756 112.936 254.033 112.936 253.076ZM120.948 249.077V260.518C120.948 260.742 120.943 260.972 120.934 261.206C120.934 261.44 120.929 261.68 120.919 261.924C120.919 262.168 120.914 262.407 120.904 262.642C120.895 262.876 120.88 263.105 120.86 263.33L130.367 249.077H132.184V265H130.777V253.457C130.777 253.164 130.777 252.861 130.777 252.549C130.787 252.227 130.797 251.909 130.807 251.597C130.816 251.274 130.826 250.972 130.836 250.688L121.285 265H119.513V249.077H120.948ZM143.902 265.293C142.32 265.293 140.982 264.966 139.889 264.312C138.805 263.647 137.984 262.705 137.428 261.484C136.881 260.254 136.607 258.799 136.607 257.119C136.607 255.371 136.925 253.877 137.56 252.637C138.194 251.387 139.088 250.43 140.24 249.766C141.393 249.102 142.745 248.77 144.298 248.77C145.06 248.77 145.768 248.838 146.422 248.975C147.076 249.111 147.667 249.302 148.194 249.546L147.799 250.85C147.252 250.605 146.671 250.42 146.056 250.293C145.44 250.166 144.85 250.103 144.283 250.103C142.975 250.103 141.861 250.391 140.943 250.967C140.035 251.533 139.337 252.344 138.849 253.398C138.37 254.443 138.131 255.679 138.131 257.104C138.131 258.442 138.336 259.629 138.746 260.664C139.156 261.689 139.786 262.5 140.636 263.096C141.485 263.682 142.574 263.975 143.902 263.975C144.674 263.975 145.406 263.896 146.1 263.74C146.803 263.584 147.442 263.384 148.019 263.14V264.487C147.501 264.722 146.9 264.912 146.217 265.059C145.543 265.215 144.771 265.293 143.902 265.293ZM170.475 249.077V263.696H172.613V270.391H171.163V265H158.976V270.391H157.54V263.696H158.609C159.508 262.456 160.26 261.074 160.865 259.551C161.471 258.027 161.93 256.387 162.242 254.629C162.564 252.861 162.735 251.011 162.755 249.077H170.475ZM169.024 250.322H164.103C164.024 252.07 163.829 253.745 163.517 255.347C163.204 256.938 162.774 258.438 162.228 259.844C161.681 261.24 161.017 262.524 160.235 263.696H169.024V250.322ZM186.998 265H185.519V250.366H179.952C179.767 252.876 179.547 255.063 179.293 256.929C179.039 258.784 178.712 260.322 178.312 261.543C177.911 262.754 177.413 263.657 176.817 264.253C176.222 264.849 175.484 265.146 174.605 265.146C174.352 265.146 174.127 265.132 173.932 265.103C173.736 265.083 173.58 265.054 173.463 265.015V263.813C173.58 263.843 173.712 263.867 173.858 263.887C174.005 263.896 174.186 263.901 174.4 263.901C174.898 263.901 175.343 263.716 175.733 263.345C176.124 262.964 176.471 262.388 176.773 261.616C177.086 260.845 177.354 259.873 177.579 258.701C177.804 257.52 177.999 256.128 178.165 254.526C178.341 252.925 178.497 251.108 178.634 249.077H186.998V265ZM192.022 265H190.25L195.055 258.145C194.186 258.037 193.443 257.803 192.828 257.441C192.213 257.08 191.744 256.592 191.422 255.977C191.109 255.361 190.953 254.614 190.953 253.735C190.953 252.173 191.446 251.006 192.433 250.234C193.429 249.463 194.713 249.077 196.285 249.077H202.862V265H201.383V258.291H196.607L192.022 265ZM192.403 253.706C192.403 254.81 192.745 255.635 193.429 256.182C194.112 256.729 195.143 257.002 196.52 257.002H201.383V250.366H196.446C195.118 250.366 194.112 250.664 193.429 251.26C192.745 251.846 192.403 252.661 192.403 253.706ZM229.186 257.017C229.186 258.247 229.034 259.37 228.731 260.386C228.429 261.392 227.979 262.261 227.384 262.993C226.788 263.726 226.046 264.292 225.157 264.692C224.278 265.093 223.253 265.293 222.081 265.293C220.968 265.293 219.977 265.098 219.107 264.707C218.238 264.307 217.501 263.74 216.896 263.008C216.3 262.275 215.846 261.406 215.533 260.4C215.221 259.385 215.064 258.257 215.064 257.017C215.064 255.308 215.348 253.838 215.914 252.607C216.49 251.367 217.311 250.42 218.375 249.766C219.449 249.102 220.733 248.77 222.228 248.77C223.771 248.77 225.055 249.121 226.08 249.824C227.115 250.518 227.892 251.484 228.409 252.725C228.927 253.965 229.186 255.396 229.186 257.017ZM216.588 257.017C216.588 258.413 216.788 259.634 217.188 260.679C217.589 261.724 218.194 262.539 219.005 263.125C219.825 263.711 220.86 264.004 222.11 264.004C223.39 264.004 224.439 263.711 225.26 263.125C226.08 262.539 226.686 261.719 227.076 260.664C227.467 259.609 227.662 258.394 227.662 257.017C227.662 255.679 227.477 254.487 227.105 253.442C226.734 252.397 226.148 251.577 225.348 250.981C224.547 250.376 223.502 250.073 222.213 250.073C220.367 250.073 218.966 250.688 218.009 251.919C217.062 253.149 216.588 254.849 216.588 257.017ZM232.716 255.435C232.716 253.433 232.872 251.709 233.185 250.264C233.507 248.818 233.98 247.627 234.605 246.689C235.24 245.742 236.026 245.024 236.964 244.536C238.009 243.862 239.264 243.345 240.729 242.983C242.203 242.622 243.912 242.329 245.855 242.104L246.09 243.423C245.074 243.54 244.132 243.672 243.263 243.818C242.403 243.965 241.617 244.131 240.904 244.316C240.191 244.492 239.552 244.692 238.985 244.917C238.429 245.142 237.945 245.396 237.535 245.679C236.891 246.069 236.339 246.621 235.88 247.334C235.421 248.037 235.055 248.906 234.781 249.941C234.508 250.977 234.337 252.188 234.269 253.574H234.386C234.747 252.92 235.216 252.339 235.792 251.831C236.378 251.323 237.052 250.923 237.813 250.63C238.575 250.327 239.41 250.176 240.318 250.176C241.656 250.176 242.779 250.459 243.688 251.025C244.605 251.582 245.299 252.402 245.768 253.486C246.236 254.561 246.471 255.869 246.471 257.412C246.471 258.994 246.217 260.381 245.709 261.572C245.201 262.754 244.439 263.672 243.424 264.326C242.418 264.971 241.158 265.293 239.645 265.293C238.414 265.293 237.359 265.044 236.48 264.546C235.602 264.038 234.884 263.34 234.327 262.451C233.78 261.553 233.375 260.508 233.111 259.316C232.848 258.115 232.716 256.821 232.716 255.435ZM239.762 264.004C240.934 264.004 241.9 263.745 242.662 263.228C243.424 262.7 243.99 261.953 244.361 260.986C244.732 260.01 244.918 258.853 244.918 257.515C244.918 255.532 244.513 254.033 243.702 253.018C242.892 251.992 241.705 251.479 240.143 251.479C239.234 251.479 238.409 251.646 237.667 251.978C236.925 252.31 236.266 252.769 235.689 253.354C235.123 253.931 234.635 254.595 234.225 255.347C234.225 256.431 234.308 257.49 234.474 258.525C234.64 259.551 234.928 260.479 235.338 261.309C235.748 262.139 236.31 262.798 237.022 263.286C237.745 263.765 238.658 264.004 239.762 264.004ZM266.319 249.077V265H264.942V253.545C264.942 253.115 264.947 252.705 264.957 252.314C264.977 251.924 264.996 251.504 265.016 251.055H264.942L259.171 265H257.882L252.154 251.04H252.081C252.101 251.489 252.115 251.914 252.125 252.314C252.135 252.705 252.14 253.145 252.14 253.633V265H250.748V249.077H252.784L258.541 263.14L264.327 249.077H266.319ZM277.086 248.77C278.443 248.77 279.571 249.087 280.47 249.722C281.378 250.356 282.052 251.226 282.491 252.329C282.94 253.433 283.165 254.697 283.165 256.123V257.192H271.666C271.666 259.38 272.169 261.06 273.175 262.231C274.19 263.403 275.641 263.989 277.525 263.989C278.512 263.989 279.366 263.911 280.089 263.755C280.821 263.589 281.632 263.311 282.521 262.92V264.282C281.739 264.634 280.958 264.888 280.177 265.044C279.396 265.21 278.497 265.293 277.481 265.293C275.87 265.293 274.518 264.961 273.424 264.297C272.34 263.623 271.52 262.676 270.963 261.455C270.416 260.234 270.143 258.809 270.143 257.178C270.143 255.586 270.406 254.155 270.934 252.886C271.471 251.616 272.252 250.615 273.277 249.883C274.312 249.141 275.582 248.77 277.086 248.77ZM277.071 250.044C275.548 250.044 274.312 250.552 273.365 251.567C272.428 252.573 271.876 254.028 271.71 255.933H281.627C281.627 254.771 281.461 253.745 281.129 252.856C280.797 251.968 280.294 251.279 279.62 250.791C278.956 250.293 278.106 250.044 277.071 250.044ZM289.054 249.077V256.05H299.088V249.077H300.567V265H299.088V257.354H289.054V265H287.56V249.077H289.054ZM311.451 248.799C313.199 248.799 314.508 249.238 315.377 250.117C316.246 250.996 316.681 252.397 316.681 254.321V265H315.538L315.274 262.217H315.187C314.845 262.812 314.43 263.345 313.941 263.813C313.453 264.272 312.853 264.634 312.14 264.897C311.437 265.161 310.577 265.293 309.562 265.293C308.536 265.293 307.657 265.122 306.925 264.78C306.202 264.438 305.641 263.94 305.24 263.286C304.85 262.632 304.654 261.836 304.654 260.898C304.654 259.316 305.309 258.115 306.617 257.295C307.926 256.465 309.806 255.996 312.257 255.889L315.216 255.742V254.585C315.216 252.954 314.894 251.792 314.249 251.099C313.604 250.405 312.652 250.059 311.393 250.059C310.572 250.059 309.781 250.166 309.02 250.381C308.268 250.586 307.501 250.884 306.72 251.274L306.251 250.044C307.013 249.683 307.828 249.385 308.697 249.15C309.576 248.916 310.494 248.799 311.451 248.799ZM315.201 256.899L312.418 257.017C310.396 257.114 308.858 257.476 307.804 258.101C306.749 258.726 306.222 259.663 306.222 260.913C306.222 261.919 306.534 262.69 307.159 263.228C307.794 263.765 308.673 264.033 309.796 264.033C311.544 264.033 312.877 263.535 313.795 262.539C314.723 261.543 315.191 260.186 315.201 258.467V256.899ZM338.272 249.077H339.986L332.779 256.812L340.426 265H338.595L331.095 256.929V265H329.601V249.077H331.095V256.812L338.272 249.077ZM356.568 257.017C356.568 258.247 356.417 259.37 356.114 260.386C355.812 261.392 355.362 262.261 354.767 262.993C354.171 263.726 353.429 264.292 352.54 264.692C351.661 265.093 350.636 265.293 349.464 265.293C348.351 265.293 347.359 265.098 346.49 264.707C345.621 264.307 344.884 263.74 344.278 263.008C343.683 262.275 343.229 261.406 342.916 260.4C342.604 259.385 342.447 258.257 342.447 257.017C342.447 255.308 342.73 253.838 343.297 252.607C343.873 251.367 344.693 250.42 345.758 249.766C346.832 249.102 348.116 248.77 349.61 248.77C351.153 248.77 352.438 249.121 353.463 249.824C354.498 250.518 355.274 251.484 355.792 252.725C356.31 253.965 356.568 255.396 356.568 257.017ZM343.971 257.017C343.971 258.413 344.171 259.634 344.571 260.679C344.972 261.724 345.577 262.539 346.388 263.125C347.208 263.711 348.243 264.004 349.493 264.004C350.772 264.004 351.822 263.711 352.643 263.125C353.463 262.539 354.068 261.719 354.459 260.664C354.85 259.609 355.045 258.394 355.045 257.017C355.045 255.679 354.859 254.487 354.488 253.442C354.117 252.397 353.531 251.577 352.73 250.981C351.93 250.376 350.885 250.073 349.596 250.073C347.75 250.073 346.349 250.688 345.392 251.919C344.444 253.149 343.971 254.849 343.971 257.017ZM362.472 249.077V256.05H372.506V249.077H373.985V265H372.506V257.354H362.472V265H360.978V249.077H362.472ZM389.454 250.381H384.063V265H382.613V250.381H377.252V249.077H389.454V250.381ZM398.727 248.77C400.084 248.77 401.212 249.087 402.11 249.722C403.019 250.356 403.692 251.226 404.132 252.329C404.581 253.433 404.806 254.697 404.806 256.123V257.192H393.307C393.307 259.38 393.81 261.06 394.815 262.231C395.831 263.403 397.281 263.989 399.166 263.989C400.152 263.989 401.007 263.911 401.729 263.755C402.462 263.589 403.272 263.311 404.161 262.92V264.282C403.38 264.634 402.599 264.888 401.817 265.044C401.036 265.21 400.138 265.293 399.122 265.293C397.511 265.293 396.158 264.961 395.064 264.297C393.98 263.623 393.16 262.676 392.604 261.455C392.057 260.234 391.783 258.809 391.783 257.178C391.783 255.586 392.047 254.155 392.574 252.886C393.111 251.616 393.893 250.615 394.918 249.883C395.953 249.141 397.223 248.77 398.727 248.77ZM398.712 250.044C397.188 250.044 395.953 250.552 395.006 251.567C394.068 252.573 393.517 254.028 393.351 255.933H403.268C403.268 254.771 403.102 253.745 402.77 252.856C402.438 251.968 401.935 251.279 401.261 250.791C400.597 250.293 399.747 250.044 398.712 250.044ZM410.694 249.077V256.05H420.729V249.077H422.208V265H420.729V257.354H410.694V265H409.2V249.077H410.694ZM437.677 250.381H432.286V265H430.836V250.381H425.475V249.077H437.677V250.381ZM454.127 257.017C454.127 258.247 453.976 259.37 453.673 260.386C453.37 261.392 452.921 262.261 452.325 262.993C451.729 263.726 450.987 264.292 450.099 264.692C449.22 265.093 448.194 265.293 447.022 265.293C445.909 265.293 444.918 265.098 444.049 264.707C443.18 264.307 442.442 263.74 441.837 263.008C441.241 262.275 440.787 261.406 440.475 260.4C440.162 259.385 440.006 258.257 440.006 257.017C440.006 255.308 440.289 253.838 440.855 252.607C441.432 251.367 442.252 250.42 443.316 249.766C444.391 249.102 445.675 248.77 447.169 248.77C448.712 248.77 449.996 249.121 451.021 249.824C452.057 250.518 452.833 251.484 453.351 252.725C453.868 253.965 454.127 255.396 454.127 257.017ZM441.529 257.017C441.529 258.413 441.729 259.634 442.13 260.679C442.53 261.724 443.136 262.539 443.946 263.125C444.767 263.711 445.802 264.004 447.052 264.004C448.331 264.004 449.381 263.711 450.201 263.125C451.021 262.539 451.627 261.719 452.018 260.664C452.408 259.609 452.604 258.394 452.604 257.017C452.604 255.679 452.418 254.487 452.047 253.442C451.676 252.397 451.09 251.577 450.289 250.981C449.488 250.376 448.443 250.073 447.154 250.073C445.309 250.073 443.907 250.688 442.95 251.919C442.003 253.149 441.529 254.849 441.529 257.017ZM474.034 249.077V265H472.657V253.545C472.657 253.115 472.662 252.705 472.672 252.314C472.691 251.924 472.711 251.504 472.73 251.055H472.657L466.886 265H465.597L459.869 251.04H459.796C459.815 251.489 459.83 251.914 459.84 252.314C459.85 252.705 459.854 253.145 459.854 253.633V265H458.463V249.077H460.499L466.256 263.14L472.042 249.077H474.034Z" fill="black"/>
<rect x="47" y="45" width="193" height="45" rx="20" fill="#14EB36"/>
<path d="M104.406 61.5781C105.88 61.5781 106.956 61.8958 107.633 62.5312C108.31 63.1615 108.648 64.0312 108.648 65.1406C108.648 65.6406 108.573 66.1198 108.422 66.5781C108.271 67.0312 108.023 67.4349 107.68 67.7891C107.341 68.1432 106.888 68.4245 106.32 68.6328C105.753 68.8359 105.052 68.9375 104.219 68.9375H103.18V73H100.758V61.5781H104.406ZM104.281 63.5625H103.18V66.9531H103.977C104.43 66.9531 104.823 66.8932 105.156 66.7734C105.49 66.6536 105.747 66.4661 105.93 66.2109C106.112 65.9557 106.203 65.6276 106.203 65.2266C106.203 64.6641 106.047 64.2474 105.734 63.9766C105.422 63.7005 104.938 63.5625 104.281 63.5625ZM114.219 64.1016C115.026 64.1016 115.721 64.2578 116.305 64.5703C116.888 64.8776 117.339 65.3255 117.656 65.9141C117.974 66.5026 118.133 67.2214 118.133 68.0703V69.2266H112.5C112.526 69.8984 112.727 70.4271 113.102 70.8125C113.482 71.1927 114.008 71.3828 114.68 71.3828C115.237 71.3828 115.747 71.3255 116.211 71.2109C116.674 71.0964 117.151 70.9245 117.641 70.6953V72.5391C117.208 72.7526 116.755 72.9089 116.281 73.0078C115.812 73.1068 115.242 73.1562 114.57 73.1562C113.695 73.1562 112.919 72.9948 112.242 72.6719C111.57 72.349 111.042 71.8568 110.656 71.1953C110.276 70.5339 110.086 69.7005 110.086 68.6953C110.086 67.6745 110.258 66.8255 110.602 66.1484C110.951 65.4661 111.435 64.9557 112.055 64.6172C112.674 64.2734 113.396 64.1016 114.219 64.1016ZM114.234 65.7969C113.771 65.7969 113.385 65.9453 113.078 66.2422C112.776 66.5391 112.602 67.0052 112.555 67.6406H115.898C115.893 67.2865 115.828 66.9714 115.703 66.6953C115.583 66.4193 115.401 66.2005 115.156 66.0391C114.917 65.8776 114.609 65.7969 114.234 65.7969ZM123.75 71.2578C124.01 71.2578 124.263 71.2318 124.508 71.1797C124.758 71.1276 125.005 71.0625 125.25 70.9844V72.7578C124.995 72.8724 124.677 72.9661 124.297 73.0391C123.922 73.1172 123.51 73.1562 123.062 73.1562C122.542 73.1562 122.073 73.0729 121.656 72.9062C121.245 72.7344 120.919 72.4401 120.68 72.0234C120.445 71.6016 120.328 71.0156 120.328 70.2656V66.0547H119.188V65.0469L120.5 64.25L121.188 62.4062H122.711V64.2656H125.156V66.0547H122.711V70.2656C122.711 70.599 122.805 70.849 122.992 71.0156C123.185 71.1771 123.438 71.2578 123.75 71.2578ZM135.016 61.5781C136.49 61.5781 137.565 61.8958 138.242 62.5312C138.919 63.1615 139.258 64.0312 139.258 65.1406C139.258 65.6406 139.182 66.1198 139.031 66.5781C138.88 67.0312 138.633 67.4349 138.289 67.7891C137.951 68.1432 137.497 68.4245 136.93 68.6328C136.362 68.8359 135.661 68.9375 134.828 68.9375H133.789V73H131.367V61.5781H135.016ZM134.891 63.5625H133.789V66.9531H134.586C135.039 66.9531 135.432 66.8932 135.766 66.7734C136.099 66.6536 136.357 66.4661 136.539 66.2109C136.721 65.9557 136.812 65.6276 136.812 65.2266C136.812 64.6641 136.656 64.2474 136.344 63.9766C136.031 63.7005 135.547 63.5625 134.891 63.5625ZM146.102 64.1016C146.221 64.1016 146.359 64.1094 146.516 64.125C146.677 64.1354 146.807 64.151 146.906 64.1719L146.727 66.4062C146.648 66.3802 146.536 66.362 146.391 66.3516C146.25 66.3359 146.128 66.3281 146.023 66.3281C145.716 66.3281 145.417 66.3672 145.125 66.4453C144.839 66.5234 144.581 66.651 144.352 66.8281C144.122 67 143.94 67.2292 143.805 67.5156C143.674 67.7969 143.609 68.1432 143.609 68.5547V73H141.227V64.2656H143.031L143.383 65.7344H143.5C143.672 65.4375 143.885 65.1667 144.141 64.9219C144.401 64.6719 144.695 64.474 145.023 64.3281C145.357 64.1771 145.716 64.1016 146.102 64.1016ZM156.43 68.6172C156.43 69.3464 156.331 69.9922 156.133 70.5547C155.94 71.1172 155.656 71.5938 155.281 71.9844C154.911 72.3698 154.464 72.6615 153.938 72.8594C153.417 73.0573 152.828 73.1562 152.172 73.1562C151.557 73.1562 150.992 73.0573 150.477 72.8594C149.966 72.6615 149.521 72.3698 149.141 71.9844C148.766 71.5938 148.474 71.1172 148.266 70.5547C148.062 69.9922 147.961 69.3464 147.961 68.6172C147.961 67.6484 148.133 66.8281 148.477 66.1562C148.82 65.4844 149.31 64.974 149.945 64.625C150.581 64.276 151.339 64.1016 152.219 64.1016C153.036 64.1016 153.76 64.276 154.391 64.625C155.026 64.974 155.523 65.4844 155.883 66.1562C156.247 66.8281 156.43 67.6484 156.43 68.6172ZM150.391 68.6172C150.391 69.1901 150.453 69.6719 150.578 70.0625C150.703 70.4531 150.898 70.7474 151.164 70.9453C151.43 71.1432 151.776 71.2422 152.203 71.2422C152.625 71.2422 152.966 71.1432 153.227 70.9453C153.492 70.7474 153.685 70.4531 153.805 70.0625C153.93 69.6719 153.992 69.1901 153.992 68.6172C153.992 68.0391 153.93 67.5599 153.805 67.1797C153.685 66.7943 153.492 66.5052 153.227 66.3125C152.961 66.1198 152.615 66.0234 152.188 66.0234C151.557 66.0234 151.099 66.2396 150.812 66.6719C150.531 67.1042 150.391 67.7526 150.391 68.6172ZM157.695 76.8438C157.424 76.8438 157.143 76.8229 156.852 76.7812C156.56 76.7448 156.318 76.7005 156.125 76.6484V74.7734C156.318 74.8255 156.5 74.862 156.672 74.8828C156.839 74.9089 157.029 74.9219 157.242 74.9219C157.565 74.9219 157.839 74.8307 158.062 74.6484C158.286 74.4714 158.398 74.1198 158.398 73.5938V64.2656H160.781V73.9453C160.781 74.4766 160.68 74.9609 160.477 75.3984C160.273 75.8411 159.945 76.1927 159.492 76.4531C159.039 76.7135 158.44 76.8438 157.695 76.8438ZM158.297 62.0078C158.297 61.5599 158.422 61.2552 158.672 61.0938C158.927 60.9271 159.234 60.8438 159.594 60.8438C159.948 60.8438 160.253 60.9271 160.508 61.0938C160.763 61.2552 160.891 61.5599 160.891 62.0078C160.891 62.4505 160.763 62.7578 160.508 62.9297C160.253 63.0964 159.948 63.1797 159.594 63.1797C159.234 63.1797 158.927 63.0964 158.672 62.9297C158.422 62.7578 158.297 62.4505 158.297 62.0078ZM166.891 64.1016C167.698 64.1016 168.393 64.2578 168.977 64.5703C169.56 64.8776 170.01 65.3255 170.328 65.9141C170.646 66.5026 170.805 67.2214 170.805 68.0703V69.2266H165.172C165.198 69.8984 165.398 70.4271 165.773 70.8125C166.154 71.1927 166.68 71.3828 167.352 71.3828C167.909 71.3828 168.419 71.3255 168.883 71.2109C169.346 71.0964 169.823 70.9245 170.312 70.6953V72.5391C169.88 72.7526 169.427 72.9089 168.953 73.0078C168.484 73.1068 167.914 73.1562 167.242 73.1562C166.367 73.1562 165.591 72.9948 164.914 72.6719C164.242 72.349 163.714 71.8568 163.328 71.1953C162.948 70.5339 162.758 69.7005 162.758 68.6953C162.758 67.6745 162.93 66.8255 163.273 66.1484C163.622 65.4661 164.107 64.9557 164.727 64.6172C165.346 64.2734 166.068 64.1016 166.891 64.1016ZM166.906 65.7969C166.443 65.7969 166.057 65.9453 165.75 66.2422C165.448 66.5391 165.273 67.0052 165.227 67.6406H168.57C168.565 67.2865 168.5 66.9714 168.375 66.6953C168.255 66.4193 168.073 66.2005 167.828 66.0391C167.589 65.8776 167.281 65.7969 166.906 65.7969ZM176.289 73.1562C175.424 73.1562 174.688 73 174.078 72.6875C173.469 72.3698 173.005 71.8802 172.688 71.2188C172.37 70.5573 172.211 69.7109 172.211 68.6797C172.211 67.612 172.391 66.7422 172.75 66.0703C173.115 65.3932 173.617 64.8958 174.258 64.5781C174.904 64.2604 175.651 64.1016 176.5 64.1016C177.104 64.1016 177.625 64.1615 178.062 64.2812C178.505 64.3958 178.891 64.5339 179.219 64.6953L178.516 66.5391C178.141 66.388 177.792 66.2656 177.469 66.1719C177.146 66.0729 176.823 66.0234 176.5 66.0234C176.083 66.0234 175.737 66.1224 175.461 66.3203C175.185 66.513 174.979 66.8047 174.844 67.1953C174.708 67.5859 174.641 68.0755 174.641 68.6641C174.641 69.2422 174.714 69.7214 174.859 70.1016C175.005 70.4818 175.216 70.7656 175.492 70.9531C175.768 71.1354 176.104 71.2266 176.5 71.2266C176.995 71.2266 177.435 71.1615 177.82 71.0312C178.206 70.8958 178.581 70.7083 178.945 70.4688V72.5078C178.581 72.737 178.198 72.901 177.797 73C177.401 73.1042 176.898 73.1562 176.289 73.1562ZM184.656 71.2578C184.917 71.2578 185.169 71.2318 185.414 71.1797C185.664 71.1276 185.911 71.0625 186.156 70.9844V72.7578C185.901 72.8724 185.583 72.9661 185.203 73.0391C184.828 73.1172 184.417 73.1562 183.969 73.1562C183.448 73.1562 182.979 73.0729 182.562 72.9062C182.151 72.7344 181.826 72.4401 181.586 72.0234C181.352 71.6016 181.234 71.0156 181.234 70.2656V66.0547H180.094V65.0469L181.406 64.25L182.094 62.4062H183.617V64.2656H186.062V66.0547H183.617V70.2656C183.617 70.599 183.711 70.849 183.898 71.0156C184.091 71.1771 184.344 71.2578 184.656 71.2578Z" fill="white"/>
</svg>
