<svg width="17" height="17" viewBox="0 0 28 28" fill="none" xmlns="http://www.w3.org/2000/svg">
  <path fill-rule="evenodd" clip-rule="evenodd" d="M2 13.9301C2 7.35005 7.37 2 14 2C20.63 2 26 7.35005 26 13.9301C26 16.3701 25.26 18.64 24 20.53C23.82 20.8 23.78 21.1301 23.89 21.4301L25.5699 26H13.96C7.33996 26 2 20.5401 2 13.9301ZM14 0C6.27 0 0 6.23005 0 13.9301C0 21.6201 6.20996 28 13.96 28H27C27.33 28 27.6299 27.8399 27.8199 27.5699C28.0099 27.2999 28.0499 26.96 27.9399 26.66L25.9399 21.21C27.2499 19.09 28 16.6001 28 13.9301C28 6.23005 21.73 0 14 0Z" fill="#262626"/>
</svg>
