<svg width="17" height="17" viewBox="0 0 20 20" fill="none" xmlns="http://www.w3.org/2000/svg">
  <path d="M12.2199 19.6301C11.0399 19.6301 9.36988 18.8001 8.04988 14.8301L7.32988 12.6701L5.16988 11.9501C1.20988 10.6301 0.379883 8.96007 0.379883 7.78007C0.379883 6.61007 1.20988 4.93007 5.16988 3.60007L13.6599 0.770071C15.7799 0.0600712 17.5499 0.270071 18.6399 1.35007C19.7299 2.43007 19.9399 4.21007 19.2299 6.33007L16.3999 14.8201C15.0699 18.8001 13.3999 19.6301 12.2199 19.6301ZM5.63988 5.03007C2.85988 5.96007 1.86988 7.06007 1.86988 7.78007C1.86988 8.50007 2.85988 9.60007 5.63988 10.5201L8.15988 11.3601C8.37988 11.4301 8.55988 11.6101 8.62988 11.8301L9.46988 14.3501C10.3899 17.1301 11.4999 18.1201 12.2199 18.1201C12.9399 18.1201 14.0399 17.1301 14.9699 14.3501L17.7999 5.86007C18.3099 4.32007 18.2199 3.06007 17.5699 2.41007C16.9199 1.76007 15.6599 1.68007 14.1299 2.19007L5.63988 5.03007Z" fill="#262626"/>
  <path d="M8.1098 12.4C7.9198 12.4 7.7298 12.33 7.5798 12.18C7.2898 11.89 7.2898 11.41 7.5798 11.12L11.1598 7.53C11.4498 7.24 11.9298 7.24 12.2198 7.53C12.5098 7.82 12.5098 8.3 12.2198 8.59L8.63981 12.18C8.49981 12.33 8.2998 12.4 8.1098 12.4Z" fill="#262626"/>
</svg>
