<svg width="22" height="22" viewBox="0 0 30 32" fill="none" xmlns="http://www.w3.org/2000/svg">
  <path d="M23 0H0V32H23V0Z" fill="white"/>
  <path d="M21 3C21 3.55 20.6143 4 20.1429 4L7.28571 4C5.86286 4 4.71429 5.34 4.71429 7L4.71429 25C4.71429 26.66 5.86286 28 7.28571 28L20.1429 28C20.6143 28 21 28.45 21 29C21 29.55 20.6143 30 20.1429 30L7.28571 30C4.92 30 3 27.76 3 25L3 7C3 4.24 4.92 2 7.28571 2L20.1429 2C20.6143 2 21 2.45 21 3Z" fill="#262626"/>
  <path d="M27.0532 15.0004L23.34 10.7118C23.0032 10.322 23.0032 9.68226 23.34 9.2924C23.6768 8.90253 24.2294 8.90253 24.5662 9.2924L29.7474 15.2903C30.0842 15.6802 30.0842 16.3198 29.7474 16.7097L24.5662 22.7076C24.2294 23.0975 23.6768 23.0975 23.34 22.7076C23.0032 22.3177 23.0032 21.678 23.34 21.2882L27.0532 16.9996L11.8635 16.9996C11.3886 16.9996 11 16.5498 11 16C11 15.4502 11.3886 15.0004 11.8635 15.0004L27.0532 15.0004Z" fill="#262626"/>
</svg>
